<svg id="Layer_1" data-name="Layer 1" xmlns="http://www.w3.org/2000/svg" viewBox="0 0 161.27 95.65"><defs><style>.cls-1{fill:#fff;}.cls-2{fill:#2c308b;}</style></defs><path class="cls-1" d="M.84,7.3A6.54,6.54,0,0,1,7.36.75H52.22A6.54,6.54,0,0,1,58.74,7.3V88.9a6.54,6.54,0,0,1-6.52,6.55H7.36A6.54,6.54,0,0,1,.84,88.9Z" transform="translate(-0.4 -0.28)"/><path class="cls-2" d="M55.89,6.89V17.07H3.69V6.89A3.32,3.32,0,0,1,7,3.57H52.57A3.32,3.32,0,0,1,55.89,6.89ZM3.69,89.31A3.32,3.32,0,0,0,7,92.63H52.57a3.32,3.32,0,0,0,3.32-3.32V79.12H3.69Zm0-11.62h52.2V18.51H3.69ZM59.18,6.89V89.31a6.61,6.61,0,0,1-6.61,6.61H7A6.61,6.61,0,0,1,.4,89.31V6.89A6.61,6.61,0,0,1,7,.28H52.57A6.61,6.61,0,0,1,59.18,6.89Zm-1.87,0a4.75,4.75,0,0,0-4.74-4.75H7A4.75,4.75,0,0,0,2.27,6.89V89.31A4.75,4.75,0,0,0,7,94.06H52.57a4.75,4.75,0,0,0,4.74-4.75Z" transform="translate(-0.4 -0.28)"/><path class="cls-1" d="M48.1,83.21v1.84h2.69v1.36H48.1v2.08h3.67v1.36H46.46v-8h5.31v1.36Zm-8.34-.08a2,2,0,0,1,2,1.42l0,0L43.1,84h0v0a3.21,3.21,0,0,0-3.36-2.21,4.11,4.11,0,0,0,0,8.21,3.61,3.61,0,0,0,3.34-2l0,0-1.31-.56h0v0a2,2,0,0,1-2,1.26c-1.43,0-2.28-1-2.28-2.76S38.33,83.13,39.76,83.13Zm-9.22,2L29,81.87v0H27.09l2.64,5v3h1.65V86.79L34,81.91l0-.06H32.14Zm-5.45.8A3.9,3.9,0,0,1,21,90a4.11,4.11,0,0,1,0-8.21A3.91,3.91,0,0,1,25.09,85.89Zm-1.68,0c0-1.7-.91-2.76-2.37-2.76s-2.37,1.06-2.37,2.76.91,2.76,2.37,2.76S23.41,87.59,23.41,85.89Zm-9,3.82.09.14H12.86l0,0a2,2,0,0,1-.39-.75l-.54-1.81c-.15-.52-.33-.75-.94-.75H9.8v3.34H8.2v-8h3.44A2.22,2.22,0,0,1,14.1,84a1.92,1.92,0,0,1-1.3,1.84l-.11,0,.11,0a1.44,1.44,0,0,1,.71,1l.57,2A2.47,2.47,0,0,0,14.42,89.71Zm-1.94-5.53c0-.64-.38-1-1.09-1H9.8v2h1.59C12.1,85.16,12.48,84.82,12.48,84.18ZM29.72,29.87H19.47v.61c1.47.44,2.18,1.55,2.21,3.49V44.1a17.25,17.25,0,0,0,4.37-1.33V32.33h5.22A7.23,7.23,0,0,0,29.72,29.87ZM29,54.32a10.15,10.15,0,0,0-.9-2.07l-1.67,0h-.38V48.9a39.9,39.9,0,0,1-4.37.76c0,9,0,18.65,0,18.83h0c-.08,1.84-.79,3-2.16,3.39v.63h8.7v-.63a3.19,3.19,0,0,1-2.16-3.4l0-14.1h.37C27.24,54.39,28.19,54.36,29,54.32ZM39.39,33.67a5.63,5.63,0,0,1,.7.42A8.18,8.18,0,0,1,43.41,41c0,2.52-.94,7.61-8.4,10.09a20.16,20.16,0,0,1,1,2.2l.56-.12.23-.06.15.19A27.52,27.52,0,0,1,42.4,66.38s.24,2.33.24,3.16v.37a2,2,0,0,1-1.47,2v.62h9v-.61c-.8-.24-2.38-1.06-3.06-3.8l-.1-.42c-.5-2.07-.78-3.21-1.14-4.31-.86-2.62-2.74-7.53-5.75-11L39.77,52l.44-.21a2,2,0,0,1,.27-.12l.23-.11c4.62-2.35,7.16-6.14,7.16-10.65a10.79,10.79,0,0,0-4.73-8.67,12.16,12.16,0,0,0-4.65-2A11.81,11.81,0,0,1,39.39,33.67Zm-6.33-7.48a10.78,10.78,0,0,1,4.73,8.67c0,4.51-2.54,8.29-7.16,10.65l-.23.1-.27.12L29.7,46l.32.37c3,3.45,4.89,8.36,5.74,11,.36,1.1.64,2.24,1.14,4.31L37,62c.67,2.75,2.25,3.57,3.05,3.81v.6h-9v-.61a2,2,0,0,0,1.47-2v-.07s0-.1,0-.15v-.14c0-.84-.25-3.14-.25-3.16a27.5,27.5,0,0,0-5.44-13.1L26.73,47l-.23.06A40.83,40.83,0,0,1,16.34,48.3H16l0,14.1a3.2,3.2,0,0,0,2.17,3.41v.62H9.45v-.62c1.37-.44,2.08-1.55,2.16-3.39v0c0-.34,0-34.11,0-34.51,0-1.94-.75-3.06-2.22-3.49v-.61H23.85C28.08,23.79,30.85,24.7,33.06,26.19Zm.27,8.72A8.16,8.16,0,0,0,30,28a11,11,0,0,0-6.38-1.76H16v20h.38C31.67,46,33.33,38.22,33.33,34.91ZM17.42,10.32a3.91,3.91,0,0,1,4-4.12,3.91,3.91,0,0,1,4.05,4.12,3.91,3.91,0,0,1-4.05,4.12A3.91,3.91,0,0,1,17.42,10.32Zm1.68,0c0,1.7.9,2.76,2.36,2.76s2.37-1.06,2.37-2.76-.9-2.76-2.37-2.76S19.1,8.62,19.1,10.32ZM34.37,13H30.69V6.32H29.06v8h5.31Zm8.49,0H39.18V6.32H37.55v8h5.31ZM10.11,14.32H8.52v-8H12a2.22,2.22,0,0,1,2.46,2.15,1.92,1.92,0,0,1-1.3,1.85l-.1,0,.1.05a1.44,1.44,0,0,1,.71,1l.57,2a2.59,2.59,0,0,0,.34.75l.09.13H13.17l0,0a2.1,2.1,0,0,1-.39-.75l-.53-1.8c-.16-.52-.33-.75-1-.75H10.11Zm0-4.69H11.7c.72,0,1.1-.34,1.1-1s-.38-1-1.1-1H10.11Zm38.33,3.45a2.8,2.8,0,0,1-2.35-1.25L46,11.76l-.46,1.65h0a3.6,3.6,0,0,0,2.71,1A2.54,2.54,0,0,0,51.13,12c0-.87-.25-1.84-2.08-2.38-1.47-.44-1.73-.78-1.73-1.29s.57-.81,1.11-.81a2.84,2.84,0,0,1,1.81.7l0,0,.43-1.38,0,0a4,4,0,0,0-2.28-.65c-1.62,0-2.67.88-2.67,2.23,0,1.09.75,1.87,2.23,2.32a4,4,0,0,1,1,.42,1,1,0,0,1-.56,1.91Z" transform="translate(-0.4 -0.28)"/><path class="cls-2" d="M81,57.26c.58,0,.92.35,1,1a8.4,8.4,0,0,0,2.61,5.25,8,8,0,0,0,10.44-.11,7.41,7.41,0,0,0,2-5.48,9.15,9.15,0,0,0-.84-4.24A7.2,7.2,0,0,0,93.81,51a37.39,37.39,0,0,0-4.71-2.58,22.4,22.4,0,0,1-7.2-5.08,10.12,10.12,0,0,1-2.43-6.91,9.73,9.73,0,0,1,1.31-5.08A9,9,0,0,1,84.43,28a11.15,11.15,0,0,1,5.19-1.21,11,11,0,0,1,6.71,1.84,8.3,8.3,0,0,1,3.16,5.22,1,1,0,0,1,.05.34c0,.5-.3.85-.92,1l-.91.28a1,1,0,0,1-.4.06c-.5,0-.85-.3-1-.92Q95,29.85,89.62,29.84a6.68,6.68,0,0,0-4.82,1.81,6.46,6.46,0,0,0-1.89,4.9,6.75,6.75,0,0,0,1.86,4.94,21.92,21.92,0,0,0,6.11,3.9q5.22,2.52,7.43,5.19a10.77,10.77,0,0,1,2.21,7.08,11.21,11.21,0,0,1-1.41,5.68,9.86,9.86,0,0,1-3.84,3.82,11.35,11.35,0,0,1-5.54,1.34,10.4,10.4,0,0,1-11-9.63V58.7a1.13,1.13,0,0,1,.91-1.15l1-.23A.77.77,0,0,1,81,57.26Z" transform="translate(-0.4 -0.28)"/><path class="cls-2" d="M106.08,66.55V28.69a1,1,0,0,1,1.15-1.14H109a1.29,1.29,0,0,1,1.32.92l9.23,25.58,9.24-25.58a1.29,1.29,0,0,1,1.32-.92h1.72a1,1,0,0,1,1.15,1.14V66.55a1,1,0,0,1-1.15,1.15h-1a1,1,0,0,1-1.15-1.15V34.89l-8.09,22.89a1.3,1.3,0,0,1-1.32.92h-1.37a1.3,1.3,0,0,1-1.32-.92l-8.09-22.89V66.55a1,1,0,0,1-1.15,1.15h-1A1,1,0,0,1,106.08,66.55Z" transform="translate(-0.4 -0.28)"/><path class="cls-2" d="M140,66.55V28.69a1,1,0,0,1,1.15-1.14h9.69c3.37,0,5.93.93,7.69,2.81a10.78,10.78,0,0,1,2.64,7.69,10.34,10.34,0,0,1-.92,4.35,10.06,10.06,0,0,1-2.38,3.33,8,8,0,0,1-3,1.78A3.52,3.52,0,0,1,157,48.94a9.3,9.3,0,0,1,1.06,3.16L160.52,64a6.57,6.57,0,0,0,.92,2.36,1.07,1.07,0,0,1,.23.68.61.61,0,0,1-.26.49,1,1,0,0,1-.66.2h-1.38A1.56,1.56,0,0,1,158,67a5.15,5.15,0,0,1-.8-2.18l-2.58-12.1a6.13,6.13,0,0,0-1.55-3.24,5,5,0,0,0-3.44-1h-6.14v18a1,1,0,0,1-1.15,1.15h-1.14A1,1,0,0,1,140,66.55Zm11.13-21.1A6.36,6.36,0,0,0,156,43.58a7.84,7.84,0,0,0,1.74-5.53A7.85,7.85,0,0,0,156,32.51a6.35,6.35,0,0,0-4.85-1.86h-7.69v14.8Z" transform="translate(-0.4 -0.28)"/></svg>